<mxfile host="app.diagrams.net" modified="2023-05-15T05:16:11.885Z" agent="Mozilla/5.0 (Windows NT 10.0; Win64; x64) AppleWebKit/537.36 (KHTML, like Gecko) Chrome/113.0.0.0 Safari/537.36" etag="wgQfuC2ybT48B5im075T" version="21.3.0" type="github">
  <diagram name="Page-1" id="74e2e168-ea6b-b213-b513-2b3c1d86103e">
    <mxGraphModel dx="2074" dy="1156" grid="1" gridSize="10" guides="1" tooltips="1" connect="1" arrows="1" fold="1" page="1" pageScale="1" pageWidth="1100" pageHeight="850" background="none" math="0" shadow="0">
      <root>
        <mxCell id="0" />
        <mxCell id="1" parent="0" />
        <mxCell id="77e6c97f196da883-1" value="调度器" style="swimlane;html=1;childLayout=stackLayout;startSize=20;rounded=0;shadow=0;labelBackgroundColor=none;strokeWidth=1;fontFamily=Verdana;fontSize=8;align=center;" parent="1" vertex="1">
          <mxGeometry x="70" y="30" width="1410" height="750" as="geometry" />
        </mxCell>
        <mxCell id="77e6c97f196da883-2" value="TO 处理器(new TO check)" style="swimlane;html=1;startSize=20;" parent="77e6c97f196da883-1" vertex="1">
          <mxGeometry y="20" width="390" height="730" as="geometry" />
        </mxCell>
        <mxCell id="77e6c97f196da883-8" value="&lt;font style=&quot;font-size: 8px;&quot;&gt;RAW &lt;br&gt;TransportOder参数&lt;br&gt;&lt;br&gt;&lt;/font&gt;" style="rounded=1;whiteSpace=wrap;html=1;shadow=0;labelBackgroundColor=none;strokeWidth=1;fontFamily=Verdana;fontSize=8;align=center;" parent="77e6c97f196da883-2" vertex="1">
          <mxGeometry x="120" y="62.5" width="140" height="65" as="geometry" />
        </mxCell>
        <mxCell id="lvhuI_1f0St6snO5H-O9-5" value="" style="edgeStyle=orthogonalEdgeStyle;rounded=0;orthogonalLoop=1;jettySize=auto;html=1;" edge="1" parent="77e6c97f196da883-2" source="77e6c97f196da883-13" target="lvhuI_1f0St6snO5H-O9-3">
          <mxGeometry relative="1" as="geometry">
            <Array as="points">
              <mxPoint x="170" y="220" />
              <mxPoint x="170" y="220" />
            </Array>
          </mxGeometry>
        </mxCell>
        <mxCell id="77e6c97f196da883-13" value="是否有效" style="rhombus;whiteSpace=wrap;html=1;rounded=0;shadow=0;labelBackgroundColor=none;strokeWidth=1;fontFamily=Verdana;fontSize=8;align=center;" parent="77e6c97f196da883-2" vertex="1">
          <mxGeometry x="130" y="152.5" width="80" height="47.5" as="geometry" />
        </mxCell>
        <mxCell id="77e6c97f196da883-15" value="UNROUTABLE" style="rounded=1;whiteSpace=wrap;html=1;shadow=0;labelBackgroundColor=none;strokeWidth=1;fontFamily=Verdana;fontSize=8;align=center;" parent="77e6c97f196da883-2" vertex="1">
          <mxGeometry x="280" y="150" width="100" height="52.5" as="geometry" />
        </mxCell>
        <mxCell id="77e6c97f196da883-29" style="edgeStyle=orthogonalEdgeStyle;rounded=1;html=1;labelBackgroundColor=none;startArrow=none;startFill=0;startSize=5;endArrow=classicThin;endFill=1;endSize=5;jettySize=auto;orthogonalLoop=1;strokeWidth=1;fontFamily=Verdana;fontSize=8" parent="77e6c97f196da883-2" target="77e6c97f196da883-13" edge="1">
          <mxGeometry relative="1" as="geometry">
            <mxPoint x="170" y="127.5" as="sourcePoint" />
          </mxGeometry>
        </mxCell>
        <mxCell id="77e6c97f196da883-33" style="edgeStyle=orthogonalEdgeStyle;rounded=1;html=1;labelBackgroundColor=none;startArrow=none;startFill=0;startSize=5;endArrow=classicThin;endFill=1;endSize=5;jettySize=auto;orthogonalLoop=1;strokeWidth=1;fontFamily=Verdana;fontSize=8" parent="77e6c97f196da883-2" source="77e6c97f196da883-13" target="77e6c97f196da883-15" edge="1">
          <mxGeometry relative="1" as="geometry" />
        </mxCell>
        <mxCell id="lvhuI_1f0St6snO5H-O9-20" value="" style="edgeStyle=orthogonalEdgeStyle;rounded=0;orthogonalLoop=1;jettySize=auto;html=1;" edge="1" parent="77e6c97f196da883-2" source="lvhuI_1f0St6snO5H-O9-3" target="lvhuI_1f0St6snO5H-O9-19">
          <mxGeometry relative="1" as="geometry" />
        </mxCell>
        <mxCell id="lvhuI_1f0St6snO5H-O9-3" value="ACTIVE" style="rounded=1;whiteSpace=wrap;html=1;shadow=0;labelBackgroundColor=none;strokeWidth=1;fontFamily=Verdana;fontSize=8;align=center;" vertex="1" parent="77e6c97f196da883-2">
          <mxGeometry x="120" y="230" width="100" height="60" as="geometry" />
        </mxCell>
        <mxCell id="lvhuI_1f0St6snO5H-O9-19" value="TO pool" style="rounded=1;whiteSpace=wrap;html=1;shadow=0;labelBackgroundColor=none;strokeWidth=1;fontFamily=Verdana;fontSize=8;align=center;" vertex="1" parent="77e6c97f196da883-2">
          <mxGeometry x="120" y="320" width="100" height="60" as="geometry" />
        </mxCell>
        <mxCell id="77e6c97f196da883-3" value="TD 处理器（withdraw TO）" style="swimlane;html=1;startSize=20;" parent="77e6c97f196da883-1" vertex="1">
          <mxGeometry x="390" y="20" width="220" height="730" as="geometry" />
        </mxCell>
        <mxCell id="lvhuI_1f0St6snO5H-O9-22" value="&lt;font style=&quot;font-size: 8px;&quot;&gt;WITHDRAWN&lt;br&gt;TransportOder&lt;br&gt;&lt;br&gt;&lt;/font&gt;" style="rounded=1;whiteSpace=wrap;html=1;shadow=0;labelBackgroundColor=none;strokeWidth=1;fontFamily=Verdana;fontSize=8;align=center;" vertex="1" parent="77e6c97f196da883-3">
          <mxGeometry x="50" y="62.5" width="140" height="65" as="geometry" />
        </mxCell>
        <mxCell id="77e6c97f196da883-4" value="DO 处理器" style="swimlane;html=1;startSize=20;" parent="77e6c97f196da883-1" vertex="1">
          <mxGeometry x="610" y="20" width="190" height="730" as="geometry" />
        </mxCell>
        <mxCell id="lvhuI_1f0St6snO5H-O9-42" value="" style="edgeStyle=orthogonalEdgeStyle;rounded=0;orthogonalLoop=1;jettySize=auto;html=1;" edge="1" parent="77e6c97f196da883-4" source="lvhuI_1f0St6snO5H-O9-29" target="lvhuI_1f0St6snO5H-O9-41">
          <mxGeometry relative="1" as="geometry" />
        </mxCell>
        <mxCell id="lvhuI_1f0St6snO5H-O9-29" value="Vehcle&lt;br&gt;Current TransportOder" style="rounded=1;whiteSpace=wrap;html=1;shadow=0;labelBackgroundColor=none;strokeWidth=1;fontFamily=Verdana;fontSize=8;align=center;" vertex="1" parent="77e6c97f196da883-4">
          <mxGeometry x="30" y="62.5" width="140" height="67.5" as="geometry" />
        </mxCell>
        <mxCell id="lvhuI_1f0St6snO5H-O9-34" style="edgeStyle=orthogonalEdgeStyle;rounded=0;orthogonalLoop=1;jettySize=auto;html=1;exitX=0.5;exitY=1;exitDx=0;exitDy=0;" edge="1" parent="77e6c97f196da883-4">
          <mxGeometry relative="1" as="geometry">
            <mxPoint x="100" y="206.75" as="sourcePoint" />
            <mxPoint x="100" y="206.75" as="targetPoint" />
          </mxGeometry>
        </mxCell>
        <mxCell id="lvhuI_1f0St6snO5H-O9-44" value="" style="edgeStyle=orthogonalEdgeStyle;rounded=0;orthogonalLoop=1;jettySize=auto;html=1;" edge="1" parent="77e6c97f196da883-4" source="lvhuI_1f0St6snO5H-O9-41" target="lvhuI_1f0St6snO5H-O9-43">
          <mxGeometry relative="1" as="geometry" />
        </mxCell>
        <mxCell id="lvhuI_1f0St6snO5H-O9-41" value="&lt;b&gt;current&lt;br&gt;diriver order ==null&lt;/b&gt;" style="rhombus;whiteSpace=wrap;html=1;rounded=0;shadow=0;labelBackgroundColor=none;strokeWidth=1;fontFamily=Verdana;fontSize=8;align=center;" vertex="1" parent="77e6c97f196da883-4">
          <mxGeometry x="45" y="160" width="110" height="80" as="geometry" />
        </mxCell>
        <mxCell id="lvhuI_1f0St6snO5H-O9-48" value="" style="edgeStyle=orthogonalEdgeStyle;rounded=0;orthogonalLoop=1;jettySize=auto;html=1;" edge="1" parent="77e6c97f196da883-4" source="lvhuI_1f0St6snO5H-O9-43" target="lvhuI_1f0St6snO5H-O9-45">
          <mxGeometry relative="1" as="geometry" />
        </mxCell>
        <mxCell id="lvhuI_1f0St6snO5H-O9-43" value="更新&amp;nbsp; TransportOrder&lt;br&gt;driveorder index" style="rounded=1;whiteSpace=wrap;html=1;shadow=0;labelBackgroundColor=none;strokeWidth=1;fontFamily=Verdana;fontSize=8;align=center;" vertex="1" parent="77e6c97f196da883-4">
          <mxGeometry x="30" y="290" width="140" height="60" as="geometry" />
        </mxCell>
        <mxCell id="lvhuI_1f0St6snO5H-O9-45" value="处理 retoute" style="rounded=1;whiteSpace=wrap;html=1;shadow=0;labelBackgroundColor=none;strokeWidth=1;fontFamily=Verdana;fontSize=8;align=center;" vertex="1" parent="77e6c97f196da883-4">
          <mxGeometry x="30" y="390" width="140" height="60" as="geometry" />
        </mxCell>
        <mxCell id="77e6c97f196da883-5" value="TO 处理器（ASSIGIN TO）" style="swimlane;html=1;startSize=20;" parent="77e6c97f196da883-1" vertex="1">
          <mxGeometry x="800" y="20" width="160" height="730" as="geometry" />
        </mxCell>
        <mxCell id="lvhuI_1f0St6snO5H-O9-39" value="&lt;font style=&quot;font-size: 8px;&quot;&gt;ACTIVE&lt;br&gt;TransportOder&lt;br&gt;&lt;br&gt;&lt;/font&gt;" style="rounded=1;whiteSpace=wrap;html=1;shadow=0;labelBackgroundColor=none;strokeWidth=1;fontFamily=Verdana;fontSize=8;align=center;" vertex="1" parent="77e6c97f196da883-5">
          <mxGeometry x="10" y="62.5" width="140" height="67.5" as="geometry" />
        </mxCell>
        <mxCell id="lvhuI_1f0St6snO5H-O9-40" value="IDLE" style="rhombus;whiteSpace=wrap;html=1;rounded=0;shadow=0;labelBackgroundColor=none;strokeWidth=1;fontFamily=Verdana;fontSize=8;align=center;" vertex="1" parent="77e6c97f196da883-5">
          <mxGeometry x="40" y="159.25" width="80" height="47.5" as="geometry" />
        </mxCell>
        <mxCell id="lvhuI_1f0St6snO5H-O9-36" value="dispatch" style="html=1;verticalAlign=bottom;startArrow=oval;endArrow=block;startSize=8;edgeStyle=elbowEdgeStyle;elbow=vertical;curved=0;rounded=0;dashed=1;" edge="1" target="lvhuI_1f0St6snO5H-O9-35" parent="77e6c97f196da883-5">
          <mxGeometry relative="1" as="geometry">
            <mxPoint x="80" y="210" as="sourcePoint" />
            <mxPoint x="535" y="297" as="targetPoint" />
          </mxGeometry>
        </mxCell>
        <mxCell id="lvhuI_1f0St6snO5H-O9-33" value="" style="endArrow=classic;html=1;rounded=0;exitX=0.5;exitY=1;exitDx=0;exitDy=0;entryX=0.5;entryY=0;entryDx=0;entryDy=0;" edge="1" parent="77e6c97f196da883-5" source="lvhuI_1f0St6snO5H-O9-39" target="lvhuI_1f0St6snO5H-O9-40">
          <mxGeometry width="50" height="50" relative="1" as="geometry">
            <mxPoint x="-340" y="560" as="sourcePoint" />
            <mxPoint x="-70" y="160" as="targetPoint" />
          </mxGeometry>
        </mxCell>
        <mxCell id="77e6c97f196da883-6" value="VehilcleController" style="swimlane;html=1;startSize=20;" parent="77e6c97f196da883-1" vertex="1">
          <mxGeometry x="960" y="20" width="160" height="730" as="geometry" />
        </mxCell>
        <mxCell id="lvhuI_1f0St6snO5H-O9-9" value="其他处理器" style="swimlane;html=1;startSize=20;" vertex="1" parent="77e6c97f196da883-6">
          <mxGeometry width="160" height="730" as="geometry" />
        </mxCell>
        <mxCell id="77e6c97f196da883-7" value="VehilcleController" style="swimlane;html=1;startSize=20;" parent="77e6c97f196da883-1" vertex="1">
          <mxGeometry x="1120" y="20" width="290" height="730" as="geometry" />
        </mxCell>
        <mxCell id="lvhuI_1f0St6snO5H-O9-47" value="维护 TO&lt;br&gt;DO 生命周期" style="shape=umlLifeline;perimeter=lifelinePerimeter;whiteSpace=wrap;html=1;container=1;dropTarget=0;collapsible=0;recursiveResize=0;outlineConnect=0;portConstraint=eastwest;newEdgeStyle={&quot;edgeStyle&quot;:&quot;elbowEdgeStyle&quot;,&quot;elbow&quot;:&quot;vertical&quot;,&quot;curved&quot;:0,&quot;rounded&quot;:0};" vertex="1" parent="77e6c97f196da883-7">
          <mxGeometry x="90" y="60" width="100" height="600" as="geometry" />
        </mxCell>
        <mxCell id="lvhuI_1f0St6snO5H-O9-26" value="撤销TransportOrder" style="html=1;points=[];perimeter=orthogonalPerimeter;outlineConnect=0;targetShapes=umlLifeline;portConstraint=eastwest;newEdgeStyle={&quot;edgeStyle&quot;:&quot;elbowEdgeStyle&quot;,&quot;elbow&quot;:&quot;vertical&quot;,&quot;curved&quot;:0,&quot;rounded&quot;:0};" vertex="1" parent="lvhuI_1f0St6snO5H-O9-47">
          <mxGeometry x="30" y="90" width="10" height="80" as="geometry" />
        </mxCell>
        <mxCell id="lvhuI_1f0St6snO5H-O9-35" value="发布TO 到车控制器" style="html=1;points=[];perimeter=orthogonalPerimeter;outlineConnect=0;targetShapes=umlLifeline;portConstraint=eastwest;newEdgeStyle={&quot;edgeStyle&quot;:&quot;elbowEdgeStyle&quot;,&quot;elbow&quot;:&quot;vertical&quot;,&quot;curved&quot;:0,&quot;rounded&quot;:0};" vertex="1" parent="lvhuI_1f0St6snO5H-O9-47">
          <mxGeometry x="30" y="230" width="10" height="80" as="geometry" />
        </mxCell>
        <mxCell id="lvhuI_1f0St6snO5H-O9-49" value="更新 drive order" style="html=1;points=[];perimeter=orthogonalPerimeter;outlineConnect=0;targetShapes=umlLifeline;portConstraint=eastwest;newEdgeStyle={&quot;edgeStyle&quot;:&quot;elbowEdgeStyle&quot;,&quot;elbow&quot;:&quot;vertical&quot;,&quot;curved&quot;:0,&quot;rounded&quot;:0};" vertex="1" parent="lvhuI_1f0St6snO5H-O9-47">
          <mxGeometry x="30" y="360" width="10" height="80" as="geometry" />
        </mxCell>
        <mxCell id="lvhuI_1f0St6snO5H-O9-53" value="发送command" style="html=1;points=[];perimeter=orthogonalPerimeter;outlineConnect=0;targetShapes=umlLifeline;portConstraint=eastwest;newEdgeStyle={&quot;edgeStyle&quot;:&quot;elbowEdgeStyle&quot;,&quot;elbow&quot;:&quot;vertical&quot;,&quot;curved&quot;:0,&quot;rounded&quot;:0};" vertex="1" parent="lvhuI_1f0St6snO5H-O9-47">
          <mxGeometry x="45" y="500" width="10" height="80" as="geometry" />
        </mxCell>
        <mxCell id="lvhuI_1f0St6snO5H-O9-57" value="" style="edgeStyle=elbowEdgeStyle;elbow=horizontal;endArrow=classic;html=1;curved=0;rounded=0;endSize=8;startSize=8;dashed=1;" edge="1" parent="77e6c97f196da883-7">
          <mxGeometry width="50" height="50" relative="1" as="geometry">
            <mxPoint x="140" y="640" as="sourcePoint" />
            <mxPoint x="80" y="80" as="targetPoint" />
            <Array as="points">
              <mxPoint x="20" y="580" />
            </Array>
          </mxGeometry>
        </mxCell>
        <mxCell id="lvhuI_1f0St6snO5H-O9-58" value="" style="html=1;shadow=0;dashed=0;align=center;verticalAlign=middle;shape=mxgraph.arrows2.arrow;dy=0.6;dx=40;notch=0;" vertex="1" parent="77e6c97f196da883-7">
          <mxGeometry x="180" y="610" width="60" height="20" as="geometry" />
        </mxCell>
        <mxCell id="lvhuI_1f0St6snO5H-O9-27" value="dispatch" style="html=1;verticalAlign=bottom;startArrow=oval;endArrow=block;startSize=8;edgeStyle=elbowEdgeStyle;elbow=vertical;curved=0;rounded=0;dashed=1;" edge="1" target="lvhuI_1f0St6snO5H-O9-26" parent="77e6c97f196da883-1" source="lvhuI_1f0St6snO5H-O9-22">
          <mxGeometry x="0.0014" relative="1" as="geometry">
            <mxPoint x="510" y="240" as="sourcePoint" />
            <mxPoint as="offset" />
          </mxGeometry>
        </mxCell>
        <mxCell id="lvhuI_1f0St6snO5H-O9-50" value="dispatch" style="html=1;verticalAlign=bottom;startArrow=oval;endArrow=block;startSize=8;edgeStyle=elbowEdgeStyle;elbow=vertical;curved=0;rounded=0;exitX=1;exitY=0.25;exitDx=0;exitDy=0;dashed=1;" edge="1" target="lvhuI_1f0St6snO5H-O9-49" parent="77e6c97f196da883-1" source="lvhuI_1f0St6snO5H-O9-45">
          <mxGeometry x="0.002" relative="1" as="geometry">
            <mxPoint x="1195" y="440" as="sourcePoint" />
            <mxPoint as="offset" />
          </mxGeometry>
        </mxCell>
        <mxCell id="lvhuI_1f0St6snO5H-O9-2" value="否" style="text;html=1;align=center;verticalAlign=middle;resizable=0;points=[];autosize=1;strokeColor=none;fillColor=none;" vertex="1" parent="1">
          <mxGeometry x="290" y="218" width="40" height="30" as="geometry" />
        </mxCell>
        <mxCell id="lvhuI_1f0St6snO5H-O9-6" value="是" style="text;html=1;align=center;verticalAlign=middle;resizable=0;points=[];autosize=1;strokeColor=none;fillColor=none;" vertex="1" parent="1">
          <mxGeometry x="230" y="248" width="40" height="30" as="geometry" />
        </mxCell>
        <mxCell id="lvhuI_1f0St6snO5H-O9-59" value="Text" style="text;strokeColor=none;align=center;fillColor=none;html=1;verticalAlign=middle;whiteSpace=wrap;rounded=0;" vertex="1" parent="1">
          <mxGeometry x="790" y="370" width="60" height="30" as="geometry" />
        </mxCell>
        <mxCell id="lvhuI_1f0St6snO5H-O9-60" value="ComAdapt" style="text;html=1;align=center;verticalAlign=middle;resizable=0;points=[];autosize=1;strokeColor=none;fillColor=none;" vertex="1" parent="1">
          <mxGeometry x="1430" y="660" width="80" height="30" as="geometry" />
        </mxCell>
      </root>
    </mxGraphModel>
  </diagram>
</mxfile>
